<!--
  GitHub mark — outline variant.
  Octocat simplificado a línea con stroke=currentColor + fill=none +
  stroke-width 1.5 para emparejar el estilo Heroicons del theme.
  24x24 viewBox.
-->
<svg xmlns="http://www.w3.org/2000/svg" fill="none" viewBox="0 0 24 24" stroke-width="1.5" stroke="currentColor"><path stroke-linecap="round" stroke-linejoin="round" d="M12 2.25a9.75 9.75 0 0 0-3.082 18.997c.487.09.665-.211.665-.469 0-.232-.009-.847-.013-1.662-2.713.59-3.286-1.308-3.286-1.308-.443-1.127-1.083-1.428-1.083-1.428-.886-.605.067-.593.067-.593.98.069 1.495 1.006 1.495 1.006.87 1.491 2.283 1.06 2.84.81.088-.63.341-1.06.62-1.305-2.165-.246-4.443-1.083-4.443-4.82 0-1.065.38-1.936 1.005-2.618-.101-.247-.435-1.24.095-2.584 0 0 .819-.262 2.683 1 .779-.217 1.612-.325 2.44-.328.829.003 1.663.111 2.443.328 1.862-1.262 2.68-1 2.68-1 .531 1.344.197 2.337.096 2.584.626.682 1.004 1.553 1.004 2.618 0 3.747-2.283 4.57-4.456 4.812.35.302.662.9.662 1.813 0 1.31-.011 2.366-.011 2.687 0 .26.176.564.671.468A9.751 9.751 0 0 0 12 2.25z"></path></svg>
