<svg width="4096" height="4096" viewBox="50 150 950 750" xmlns="http://www.w3.org/2000/svg" preserveAspectRatio="xMidYMid meet" version="1.0">

 <g>
  <title>Layer 1</title>
   <g stroke="null" id="svg_31" style="fill: #fff; stroke: #fff;">
       <path stroke="#fff" fill="#fff" id="svg_2" d="m75.83106,259.68563c0,6.17368 6.80962,23.08421 11.67363,28.98947c6.08002,7.51579 20.91526,15.03158 44.01933,22.54737c37.45291,12.07895 52.04495,23.62105 64.44818,51.26842l6.56642,14.22632l7.29602,-16.10526c11.67363,-25.76842 23.83367,-35.7 60.31377,-48.58421c38.91211,-13.9579 48.15374,-20.93684 55.44976,-41.60526c4.37761,-12.34737 3.89121,-14.76316 -3.40481,-14.76316c-5.59362,0 -7.53922,1.87895 -10.94403,10.73684c-5.10721,13.42105 -13.61924,19.0579 -46.93773,30.86842c-29.18408,10.46842 -49.36974,23.35263 -56.17936,35.96842l-4.37761,8.05263l-12.16003,-14.22632c-13.13284,-14.76316 -26.75208,-22.01053 -63.96178,-33.82105c-19.45606,-6.17368 -31.37289,-15.56842 -36.2369,-28.72105c-2.67521,-6.71053 -4.86401,-8.8579 -9.48483,-8.8579c-3.89121,0 -6.08002,1.61053 -6.08002,4.02632z"/>
   <path stroke="#fff" fill="#fff" id="svg_3" d="m157.78969,276.86458c-20.67206,5.90526 -23.83367,9.12632 -14.10564,13.68947c6.08002,2.68421 10.70083,2.68421 23.83367,-0.26842c21.15846,-4.29474 48.64014,-4.29474 68.8258,0.26842c14.10564,2.95263 17.02405,2.95263 23.10407,-0.80526l7.29602,-4.29474l-9.24163,-4.29474c-22.86087,-10.46842 -70.7714,-12.61579 -99.71228,-4.29474z"/>
   <path stroke="#fff" fill="#fff" id="svg_4" d="m98.20553,312.56458c-1.216,1.87895 -5.35042,10.2 -8.99843,18.25263c-8.75522,19.0579 -10.94403,46.97369 -5.10721,66.3c11.91683,39.99474 53.50415,58.51579 89.98426,40.26316l13.61924,-6.97895l6.08002,13.42105c3.40481,7.24737 7.29602,12.61579 8.51202,11.81053c1.4592,-1.07368 4.86401,-6.71053 7.53922,-12.88421c2.91841,-6.17368 5.35042,-11.54211 5.59362,-11.81053c0.2432,-0.26842 5.83682,2.41579 12.40324,5.90526c9.24163,5.36842 15.32164,6.71053 28.94088,6.71053c27.48168,-0.26842 47.18093,-12.88421 59.34097,-38.65263c5.35042,-11.27368 6.56642,-17.17895 6.56642,-33.82105c0,-17.17895 -1.216,-22.54737 -7.78242,-37.57895c-11.18723,-25.23158 -11.18723,-25.23158 -17.99685,-21.47369c-3.16161,1.87895 -6.08002,3.75789 -6.56642,4.02632c-0.4864,0.53684 2.67521,6.44211 6.80962,13.68947c13.86244,24.42632 15.80804,45.63158 5.83682,67.91053c-15.07844,33.28421 -54.47695,41.60526 -79.52663,16.64211c-8.99843,-9.12632 -9.97123,-9.39474 -12.40324,-4.56316c-1.4592,2.68421 -4.37761,7.51579 -6.56642,10.46842c-3.89121,5.63684 -4.13441,5.36842 -9.48483,-5.90526l-5.35042,-11.54211l-8.75522,9.39474c-8.99843,9.66316 -25.53607,17.98421 -35.7505,17.98421c-2.91841,0 -10.21443,-1.87895 -16.05125,-4.02632c-35.7505,-13.9579 -44.99213,-63.34737 -19.45606,-103.07369l4.86401,-7.51579l-6.08002,-3.22105c-7.53922,-3.75789 -7.05282,-3.75789 -10.21443,0.26842z"/>
   <path stroke="#fff" fill="#fff" id="svg_5" d="m131.76722,334.03827c-15.07844,8.58947 -20.42886,17.98421 -20.42886,35.16316c0,41.06842 46.45133,56.1 64.93458,21.20526l4.37761,-8.32105l-6.56642,-1.87895c-4.86401,-1.34211 -7.29602,-0.53684 -10.45763,3.75789c-13.61924,19.59474 -42.80332,5.63684 -37.93931,-18.25263c1.7024,-8.32105 13.86244,-21.47369 19.69926,-21.47369c5.59362,0 17.26725,7.51579 18.72645,12.07895c1.216,3.22105 2.67521,3.48947 7.78242,0.80526c3.40481,-1.61053 6.08002,-4.29474 6.08002,-6.17368c0,-5.1 -13.37604,-17.44737 -22.13126,-20.13158c-11.18723,-3.48947 -11.91683,-3.48947 -24.07687,3.22105z"/>
   <path stroke="#fff" fill="#fff" id="svg_6" d="m247.04435,331.08563c-8.02562,2.41579 -20.42886,13.68947 -20.42886,18.52105c0,1.61053 2.67521,4.02632 6.08002,5.90526c5.10721,2.41579 6.56642,2.14737 10.45763,-3.22105c6.56642,-8.8579 21.64486,-8.32105 28.94088,1.34211c7.53922,9.66316 7.53922,23.62105 -0.4864,32.21053c-9.24163,10.46842 -21.64486,9.93158 -30.40009,-1.07368c-4.86401,-6.17368 -7.05282,-7.24737 -11.43043,-5.36842c-7.78242,3.22105 -7.05282,6.97895 3.89121,18.78947c8.51202,9.39474 10.45763,10.46842 22.13126,10.46842c15.56484,0 26.99528,-6.97895 32.58889,-19.86316c13.61924,-31.94211 -11.67363,-67.37369 -41.34412,-57.71053z"/>
   <path stroke="#fff" fill="#fff" id="svg_7" d="m555.17963,397.92248c-9.97123,12.88421 -9.97123,13.42105 -4.37761,13.42105c3.40481,0 12.16003,-5.1 19.69926,-11.81053l13.61924,-11.54211l-7.53922,-1.87895c-4.13441,-0.80526 -8.51202,-1.61053 -9.48483,-1.61053c-0.9728,0 -6.32322,5.90526 -11.91683,13.42105z"/>
   <path stroke="#fff" fill="#fff" id="svg_8" d="m731.50013,388.79616c-7.78242,8.58947 -3.16161,19.86316 8.26882,19.86316c7.53922,0 12.16003,-4.56316 12.16003,-12.07895c0,-11.54211 -12.88964,-16.37368 -20.42886,-7.78421z"/>
   <path stroke="#fff" fill="#fff" id="svg_9" d="m683.83279,412.68564c0,13.9579 -0.7296,25.5 -1.4592,25.5c-0.7296,0 -4.62081,-2.95263 -8.75522,-6.71053c-8.99843,-8.32105 -26.02247,-9.12632 -38.42571,-1.61053c-25.29287,14.76316 -25.29287,66.3 0,81.33158c11.18723,6.71053 30.40009,5.36842 40.85772,-2.95263c7.78242,-5.90526 7.78242,-5.90526 7.78242,-0.53684c0,4.83158 1.4592,5.63684 9.72803,5.63684l9.72803,0l0,-63.07895l0,-63.07895l-9.72803,0l-9.72803,0l0,25.5zm-9.24163,35.96842c7.05282,6.97895 8.02562,9.39474 8.02562,21.74211c0,12.34737 -0.9728,14.76316 -8.02562,21.74211c-21.88806,21.74211 -49.85614,-8.05263 -35.5073,-38.11579c6.80962,-15.03158 23.34727,-17.44737 35.5073,-5.36842z"/>
   <path stroke="#fff" fill="#fff" id="svg_10" d="m440.3889,398.99616c-14.34884,5.63684 -23.34727,14.22632 -29.91369,28.98947c-11.67363,25.76842 -7.05282,55.83158 11.43043,73.81579c18.96965,18.52105 52.28815,19.32632 73.68981,1.61053l7.05282,-5.90526l-6.32322,-6.97895l-6.08002,-6.97895l-7.05282,6.17368c-9.97123,8.58947 -31.12969,9.66316 -42.07372,2.14737c-8.99843,-6.17368 -17.51045,-23.62105 -17.51045,-36.23684c0,-4.56316 2.18881,-12.88421 4.62081,-19.0579c8.75522,-21.20526 36.7233,-28.72105 53.99055,-14.76316l6.80962,5.63684l6.56642,-7.24737l6.56642,-7.24737l-6.80962,-5.90526c-13.13284,-11.54211 -37.20971,-15.03158 -54.96336,-8.05263z"/>
   <path stroke="#fff" fill="#fff" id="svg_11" d="m911.46864,425.03301c-13.13284,3.48947 -23.10407,12.07895 -28.45448,24.96316c-6.08002,14.76316 -5.83682,27.37895 0.9728,41.87369c17.26725,38.11579 76.12182,28.45263 81.22903,-13.42105c4.37761,-35.96842 -21.40166,-61.73684 -53.74735,-53.41579zm27.96808,23.62105c11.91683,13.15263 8.75522,39.18948 -5.35042,47.51053c-13.13284,7.24737 -26.50888,2.68421 -32.58889,-11.00526c-4.13441,-10.2 -4.62081,-16.91053 -1.4592,-26.30526c6.56642,-19.0579 26.50888,-24.1579 39.39851,-10.2z"/>
   <path stroke="#fff" fill="#fff" id="svg_12" d="m535.96677,429.32774c-26.99528,14.49474 -30.15689,57.71053 -5.83682,78.11053c7.53922,6.44211 10.94403,7.24737 26.02247,7.24737c21.15846,0 32.58889,-6.97895 40.37131,-24.96316c9.97123,-22.54737 0.7296,-52.34211 -18.72645,-61.2c-10.94403,-5.1 -31.85929,-4.56316 -41.83052,0.80526zm35.0209,16.37368c19.45606,17.44737 9.97123,54.22105 -13.86244,54.22105c-15.32164,0 -25.77927,-15.83684 -23.34727,-35.7c2.43201,-20.4 23.59047,-30.86842 37.20971,-18.52105z"/>
   <path stroke="#fff" fill="#fff" id="svg_13" d="m730.04092,469.05406l0,44.28948l9.72803,0l9.72803,0l0,-44.28948l0,-44.28948l-9.72803,0l-9.72803,0l0,44.28948z"/>
   <path stroke="#fff" fill="#fff" id="svg_14" d="m788.89549,429.86459c-11.67363,8.32105 -17.51045,20.66842 -17.51045,37.57895c0,17.44737 6.32322,30.06316 17.99685,36.23684c11.43043,5.90526 27.72488,5.36842 37.45291,-1.07368c10.21443,-6.97895 10.21443,-6.97895 10.21443,2.95263c0,5.36842 -2.43201,10.73684 -7.05282,16.10526c-5.83682,6.44211 -9.24163,7.78421 -18.48325,7.78421c-6.08002,0 -15.07844,-1.87895 -20.18566,-4.02632c-8.26882,-4.02632 -9.24163,-4.02632 -11.91683,0.26842c-5.10721,7.78421 -3.64801,11.81053 6.08002,16.37368c14.10564,6.71053 41.58732,5.90526 52.53135,-1.61053c16.78085,-11.54211 19.94246,-25.76842 18.96965,-88.31053l-0.4864,-27.37895l-8.51202,0c-6.80962,0 -8.51202,1.07368 -8.51202,5.36842c0,6.44211 -1.94561,6.71053 -7.78242,0.80526c-7.29602,-7.24737 -32.83209,-7.78421 -42.80332,-1.07368zm41.10092,18.78947c5.10721,5.90526 7.05282,10.46842 7.05282,17.71579c0,28.45263 -39.15531,35.7 -45.72173,8.58947c-4.62081,-18.78947 5.10721,-34.08948 21.88806,-34.08948c7.29602,0 11.18723,1.87895 16.78085,7.78421z"/>
   <path stroke="#fff" fill="#fff" id="svg_15" d="m74.85826,454.55932c-4.86401,4.56316 -10.70083,14.49474 -14.10564,23.35263c-4.86401,13.42105 -5.35042,20.13158 -5.35042,52.87895c0,33.28421 0.7296,40.26316 6.80962,61.73684c6.80962,25.23158 30.40009,82.40527 35.2641,85.62632c3.64801,2.68421 19.69926,-34.89474 28.45448,-66.83684c6.08002,-21.74211 6.80962,-28.18421 6.80962,-67.10527c0.2432,-37.31053 -0.4864,-45.36316 -5.10721,-62.00527c-7.29602,-24.96316 -17.51045,-35.96842 -33.5617,-35.96842c-8.51202,0 -12.40324,1.61053 -19.21285,8.32105zm32.83209,15.83684c12.88964,19.59474 16.78085,84.28421 7.53922,123.47369c-6.08002,25.5 -14.83524,51 -17.26725,51c-2.43201,0 -14.83524,-32.47895 -22.13126,-57.71053c-7.53922,-25.76842 -9.48483,-74.88948 -3.89121,-95.82632c5.59362,-21.47369 12.16003,-29.52632 22.86087,-28.45263c5.83682,0.53684 9.97123,2.95263 12.88964,7.51579z"/>
   <path stroke="#fff" fill="#fff" id="svg_16" d="m294.22528,450.53301c-8.02562,4.83158 -17.26725,23.88947 -21.15846,43.48421c-3.89121,20.66842 -3.40481,72.47369 1.216,96.63158c6.56642,35.96842 25.77927,90.18948 31.12969,88.31053c4.86401,-1.61053 30.40009,-61.73684 36.7233,-86.43158c12.16003,-46.43684 9.97123,-98.24211 -4.86401,-126.42632c-9.97123,-18.52105 -27.48168,-24.96316 -43.04652,-15.56842zm23.59047,13.42105c9.48483,4.02632 18.24005,35.7 18.24005,66.3c0,33.28421 -9.97123,76.23158 -25.77927,110.05264c-4.86401,10.2 -6.08002,8.32105 -15.32164,-23.62105c-9.97123,-33.55263 -13.61924,-72.20527 -9.97123,-102.26843c5.10721,-42.67895 15.07844,-57.97895 32.83209,-50.46316z"/>
   <path stroke="#fff" fill="#fff" id="svg_17" d="m494.37945,539.91722c-4.13441,2.95263 -1.7024,11.00526 3.16161,11.00526c5.35042,0 7.29602,-5.36842 3.64801,-9.66316c-2.18881,-2.14737 -4.62081,-2.68421 -6.80962,-1.34211z"/>
   <path stroke="#fff" fill="#fff" id="svg_18" d="m692.83122,539.38038c-3.64801,3.75789 -1.7024,11.54211 2.91841,11.54211c6.32322,0 8.75522,-4.56316 5.10721,-9.39474c-3.40481,-4.29474 -5.59362,-5.1 -8.02562,-2.14737z"/>
   <path stroke="#fff" fill="#fff" id="svg_19" d="m849.20926,558.7067c0,6.44211 -0.9728,8.32105 -4.86401,8.32105c-2.67521,0 -4.86401,1.87895 -4.86401,4.02632c0,2.14737 2.18881,4.02632 4.86401,4.02632c4.37761,0 4.86401,1.87895 4.86401,22.81579c0,19.32632 0.7296,23.62105 4.86401,28.18421c5.10721,5.63684 15.80804,6.97895 21.88806,2.68421c4.86401,-3.48947 1.4592,-6.44211 -8.02562,-6.44211l-7.78242,-0.26842l-0.7296,-23.62105l-0.7296,-23.35263l8.75522,0c5.83682,0 8.51202,-1.07368 8.51202,-4.02632c0,-2.68421 -2.43201,-4.02632 -8.26882,-4.02632c-7.29602,0 -8.51202,-0.80526 -9.24163,-7.24737c-0.4864,-4.56316 -2.43201,-7.78421 -4.86401,-8.32105c-3.40481,-0.80526 -4.37761,0.80526 -4.37761,7.24737z"/>
   <path stroke="#fff" fill="#fff" id="svg_20" d="m548.85641,566.49091c-2.43201,0.53684 -7.05282,2.95263 -10.21443,5.1c-5.10721,3.75789 -5.59362,3.75789 -5.59362,-0.26842c0,-2.41579 -1.7024,-4.29474 -3.64801,-4.29474c-2.91841,0 -3.64801,5.36842 -3.64801,32.21053c0,25.76842 0.7296,32.21053 3.40481,32.21053c4.37761,0 6.32322,-8.32105 6.32322,-28.98947c0,-19.86316 4.86401,-27.37895 17.99685,-27.37895c12.64644,0 16.05125,7.24737 16.05125,34.3579c0,19.86316 0.4864,22.27895 4.37761,21.47369c3.40481,-0.80526 4.37761,-4.29474 4.86401,-19.59474c0.9728,-21.20526 -2.67521,-37.84737 -8.75522,-41.06842c-6.08002,-3.48947 -15.56484,-5.36842 -21.15846,-3.75789z"/>
    <path stroke="#1E3A5F" fill="#1E3A5F" id="svg_21" d="m436.01129,574.0067c-9.72803,13.68947 -4.37761,23.35263 15.80804,28.98947c13.37604,3.75789 18.24005,9.66316 13.37604,16.10526c-3.64801,4.83158 -13.86244,5.63684 -23.59047,1.61053c-7.53922,-3.22105 -13.61924,0.53684 -9.24163,5.36842c8.02562,8.8579 35.5073,5.90526 41.34412,-4.02632c7.78242,-13.15263 1.7024,-21.47369 -20.67206,-27.64737c-10.45763,-2.68421 -14.59204,-9.12632 -9.97123,-15.3c2.91841,-3.75789 6.08002,-4.29474 16.29445,-3.22105c7.78242,0.80526 13.37604,0.26842 14.34884,-1.34211c2.67521,-4.56316 -4.37761,-7.51579 -18.96965,-7.51579c-11.91683,0 -14.34884,0.80526 -18.72645,6.97895z"/>
    <path stroke="#1E3A5F" fill="#1E3A5F" id="svg_22" d="m494.13625,596.55407c0,16.10526 0,30.33158 -0.2432,31.40526c0,1.34211 1.7024,2.41579 3.64801,2.95263c3.40481,0.80526 3.89121,-3.48947 3.89121,-31.40526c0,-27.11053 -0.4864,-32.47895 -3.64801,-32.47895c-2.91841,0 -3.64801,5.1 -3.64801,29.52632z"/>
    <path stroke="#1E3A5F" fill="#1E3A5F" id="svg_23" d="m635.67905,572.39617c-5.59362,5.90526 -6.80962,14.76316 -2.91841,21.47369c1.216,2.14737 8.99843,6.17368 17.26725,9.39474c16.78085,5.90526 19.21285,9.12632 12.88964,16.10526c-4.37761,4.56316 -17.99685,4.56316 -28.21128,0c-3.16161,-1.34211 -4.37761,-0.53684 -4.37761,2.41579c0,8.58947 22.61766,12.88421 35.2641,6.44211c6.32322,-3.22105 9.72803,-11.27368 8.02562,-19.86316c-0.9728,-5.63684 -8.75522,-10.73684 -22.86087,-14.49474c-11.67363,-3.22105 -14.83524,-8.58947 -8.99843,-15.03158c3.16161,-3.48947 7.05282,-4.02632 17.02405,-2.95263c9.72803,1.07368 12.88964,0.53684 12.88964,-2.14737c0,-8.58947 -27.72488,-9.66316 -35.9937,-1.34211z"/>
    <path stroke="#1E3A5F" fill="#1E3A5F" id="svg_24" d="m692.10161,570.51722c-0.4864,1.87895 -0.7296,16.10526 -0.4864,31.67369c0.7296,24.1579 1.216,27.91579 5.10721,28.72105c3.64801,0.80526 4.13441,-2.14737 4.13441,-31.40526c0,-27.37895 -0.4864,-32.47895 -3.64801,-32.47895c-2.18881,0 -4.37761,1.61053 -5.10721,3.48947z"/>
    <path stroke="#1E3A5F" fill="#1E3A5F" id="svg_25" d="m732.47293,570.51722c-8.26882,6.97895 -12.16003,16.64211 -12.16003,29.52632c0,11.27368 1.216,14.49474 8.26882,22.27895c6.80962,7.51579 9.97123,9.12632 18.96965,9.12632c11.43043,0 21.64486,-4.56316 23.34727,-10.46842c0.9728,-2.95263 -0.2432,-3.22105 -4.62081,-1.61053c-3.16161,1.07368 -9.97123,2.41579 -14.83524,3.22105c-7.78242,1.07368 -10.21443,0 -16.53765,-6.71053c-3.89121,-4.56316 -7.29602,-9.39474 -7.29602,-11.00526c0,-1.87895 8.51202,-2.95263 24.32007,-2.95263c20.18566,0 24.32007,-0.80526 24.32007,-4.02632c0,-7.78421 -6.80962,-22.01053 -12.40324,-26.57369c-6.80962,-5.1 -26.02247,-5.63684 -31.37289,-0.80526zm22.13126,4.56316c3.40481,0 11.91683,10.46842 11.91683,14.76316c0,3.22105 -3.89121,4.02632 -19.45606,4.02632c-10.70083,0 -19.45606,-0.80526 -19.45606,-2.14737c0,-8.05263 14.59204,-20.4 21.40166,-17.71579c1.94561,0.53684 4.37761,1.07368 5.59362,1.07368z"/>
    <path stroke="#1E3A5F" fill="#1E3A5F" id="svg_26" d="m792.0571,573.73828c-3.40481,3.48947 -6.08002,8.32105 -6.08002,10.73684c0,7.24737 10.94403,16.64211 21.40166,18.78947c10.94403,1.87895 16.29445,6.97895 14.34884,13.42105c-2.18881,5.63684 -13.13284,7.78421 -23.10407,4.56316c-9.48483,-3.22105 -15.80804,-0.26842 -11.18723,4.83158c8.02562,8.8579 35.5073,5.90526 41.34412,-4.02632c7.78242,-13.15263 1.7024,-21.47369 -20.67206,-27.64737c-10.45763,-2.68421 -14.59204,-9.12632 -9.97123,-15.3c2.91841,-3.75789 6.08002,-4.29474 16.29445,-3.22105c7.78242,0.80526 13.37604,0.26842 14.34884,-1.34211c2.67521,-4.56316 -4.37761,-7.51579 -17.99685,-7.51579c-10.45763,0 -14.10564,1.34211 -18.72645,6.71053z"/>
   <path stroke="#fff" fill="#fff" id="svg_27" d="m895.90379,570.2488c-6.32322,3.48947 -5.83682,9.39474 0.9728,8.05263c19.94246,-4.02632 24.80647,-3.75789 28.69768,2.41579c6.32322,10.2 4.86401,13.15263 -6.80962,13.15263c-26.26567,0 -38.66891,15.56842 -24.56327,30.86842c6.56642,7.51579 19.45606,9.12632 28.69768,3.75789c3.89121,-2.41579 5.35042,-2.41579 6.08002,0c0.4864,1.61053 2.43201,2.95263 4.37761,2.95263c2.67521,0 3.40481,-5.36842 3.40481,-26.57369c0,-25.76842 -0.2432,-26.84211 -6.32322,-32.21053c-7.29602,-6.17368 -24.80647,-7.51579 -34.5345,-2.41579zm33.5617,37.04211c0,8.32105 -8.75522,16.10526 -17.75365,16.10526c-8.75522,0 -13.86244,-4.02632 -13.86244,-10.73684c0,-7.51579 5.59362,-10.73684 18.72645,-10.73684c11.18723,0 12.88964,0.80526 12.88964,5.36842z"/>
   <path stroke="#fff" fill="#fff" id="svg_28" d="m131.76722,653.45933c5.10721,23.35263 17.75365,41.06842 37.45291,52.61053c10.70083,6.17368 15.32164,7.24737 34.2913,7.24737c18.96965,0 23.59047,-1.07368 34.2913,-7.24737c18.48325,-10.73684 30.88649,-29.2579 35.9937,-53.95263c1.4592,-6.44211 0.9728,-7.24737 -5.10721,-7.24737c-6.08002,0 -7.53922,1.61053 -11.18723,13.15263c-5.10721,16.37368 -21.64486,33.55263 -36.2369,37.84737c-13.86244,4.29474 -35.0209,1.87895 -47.42413,-4.83158c-12.16003,-6.97895 -20.91526,-18.25263 -26.26567,-34.08948c-3.64801,-10.2 -5.35042,-12.07895 -10.94403,-12.07895c-6.32322,0 -6.56642,0.53684 -4.86401,8.58947z"/>
   <path stroke="#fff" fill="#fff" id="svg_29" d="m143.92726,737.47512l0,28.18421l25.53607,0l25.53607,0l0,-20.13158l0,-20.13158l-7.29602,0c-7.05282,0 -7.29602,0.26842 -7.29602,13.68947l0,13.42105l-10.21443,-0.80526l-10.45763,-0.80526l-0.7296,-17.17895c-0.4864,-12.34737 -1.94561,-18.25263 -4.86401,-20.66842c-8.99843,-7.78421 -10.21443,-4.83158 -10.21443,24.42632z"/>
   <path stroke="#fff" fill="#fff" id="svg_30" d="m250.44916,712.51197c-6.56642,2.41579 -6.80962,3.22105 -6.80962,21.20526l0,18.52105l-9.72803,0l-9.72803,0l0,-13.42105c0,-13.15263 -0.2432,-13.42105 -7.29602,-13.42105l-7.29602,0l0,20.13158l0,20.13158l24.32007,0l24.32007,0l0,-28.18421c0,-15.56842 -0.2432,-28.18421 -0.4864,-27.91579c-0.4864,0 -3.64801,1.34211 -7.29602,2.95263z"/>
  </g>
 </g>
</svg>