<?xml version="1.0" standalone="no"?>
<!DOCTYPE svg PUBLIC "-//W3C//DTD SVG 20010904//EN"
 "http://www.w3.org/TR/2001/REC-SVG-20010904/DTD/svg10.dtd">
<svg version="1.0" xmlns="http://www.w3.org/2000/svg"
 width="1024.000000pt" height="1024.000000pt" viewBox="0 0 1024.000000 1024.000000"
 preserveAspectRatio="xMidYMid meet">

<g transform="translate(0.000000,1024.000000) scale(0.100000,-0.100000)"
fill="#000000" stroke="none">
<path d="M2970 5925 c0 -23 28 -86 48 -108 25 -28 86 -56 181 -84 154 -45 214
-88 265 -191 l27 -53 30 60 c48 96 98 133 248 181 160 52 198 78 228 155 18
46 16 55 -14 55 -23 0 -31 -7 -45 -40 -21 -50 -56 -71 -193 -115 -120 -39
-203 -87 -231 -134 l-18 -30 -50 53 c-54 55 -110 82 -263 126 -80 23 -129 58
-149 107 -11 25 -20 33 -39 33 -16 0 -25 -6 -25 -15z"/>
<path d="M3307 5861 c-85 -22 -98 -34 -58 -51 25 -10 44 -10 98 1 87 16 200
16 283 -1 58 -11 70 -11 95 3 l30 16 -38 16 c-94 39 -291 47 -410 16z"/>
<path d="M3062 5728 c-5 -7 -22 -38 -37 -68 -36 -71 -45 -175 -21 -247 49
-149 220 -218 370 -150 l56 26 25 -50 c14 -27 30 -47 35 -44 6 4 20 25 31 48
12 23 22 43 23 44 1 1 24 -9 51 -22 38 -20 63 -25 119 -25 113 1 194 48 244
144 22 42 27 64 27 126 0 64 -5 84 -32 140 -46 94 -46 94 -74 80 -13 -7 -25
-14 -27 -15 -2 -2 11 -24 28 -51 57 -91 65 -170 24 -253 -62 -124 -224 -155
-327 -62 -37 34 -41 35 -51 17 -6 -10 -18 -28 -27 -39 -16 -21 -17 -20 -39 22
l-22 43 -36 -35 c-37 -36 -105 -67 -147 -67 -12 0 -42 7 -66 15 -147 52 -185
236 -80 384 l20 28 -25 12 c-31 14 -29 14 -42 -1z"/>
<path d="M3200 5648 c-62 -32 -84 -67 -84 -131 0 -153 191 -209 267 -79 l18
31 -27 7 c-20 5 -30 2 -43 -14 -56 -73 -176 -21 -156 68 7 31 57 80 81 80 23
0 71 -28 77 -45 5 -12 11 -13 32 -3 14 6 25 16 25 23 0 19 -55 65 -91 75 -46
13 -49 13 -99 -12z"/>
<path d="M3674 5659 c-33 -9 -84 -51 -84 -69 0 -6 11 -15 25 -22 21 -9 27 -8
43 12 27 33 89 31 119 -5 31 -36 31 -88 -2 -120 -38 -39 -89 -37 -125 4 -20
23 -29 27 -47 20 -32 -12 -29 -26 16 -70 35 -35 43 -39 91 -39 64 0 111 26
134 74 56 119 -48 251 -170 215z"/>
<path d="M4941 5410 c-41 -48 -41 -50 -18 -50 14 0 50 19 81 44 l56 43 -31 7
c-17 3 -35 6 -39 6 -4 0 -26 -22 -49 -50z"/>
<path d="M5666 5444 c-32 -32 -13 -74 34 -74 31 0 50 17 50 45 0 43 -53 61
-84 29z"/>
<path d="M5470 5355 c0 -52 -3 -95 -6 -95 -3 0 -19 11 -36 25 -37 31 -107 34
-158 6 -104 -55 -104 -247 0 -303 46 -25 125 -20 168 11 32 22 32 22 32 2 0
-18 6 -21 40 -21 l40 0 0 235 0 235 -40 0 -40 0 0 -95z m-38 -134 c29 -26 33
-35 33 -81 0 -46 -4 -55 -33 -81 -90 -81 -205 30 -146 142 28 56 96 65 146 20z"/>
<path d="M4469 5406 c-59 -21 -96 -53 -123 -108 -48 -96 -29 -208 47 -275 78
-69 215 -72 303 -6 l29 22 -26 26 -25 26 -29 -23 c-41 -32 -128 -36 -173 -8
-37 23 -72 88 -72 135 0 17 9 48 19 71 36 79 151 107 222 55 l28 -21 27 27 27
27 -28 22 c-54 43 -153 56 -226 30z"/>
<path d="M6406 5309 c-54 -13 -95 -45 -117 -93 -25 -55 -24 -102 4 -156 71
-142 313 -106 334 50 18 134 -88 230 -221 199z m115 -88 c49 -49 36 -146 -22
-177 -54 -27 -109 -10 -134 41 -17 38 -19 63 -6 98 27 71 109 90 162 38z"/>
<path d="M4862 5293 c-111 -54 -124 -215 -24 -291 31 -24 45 -27 107 -27 87 0
134 26 166 93 41 84 3 195 -77 228 -45 19 -131 17 -172 -3z m144 -61 c80 -65
41 -202 -57 -202 -63 0 -106 59 -96 133 10 76 97 115 153 69z"/>
<path d="M5660 5145 l0 -165 40 0 40 0 0 165 0 165 -40 0 -40 0 0 -165z"/>
<path d="M5902 5291 c-48 -31 -72 -77 -72 -140 0 -65 26 -112 74 -135 47 -22
114 -20 154 4 42 26 42 26 42 -11 0 -20 -10 -40 -29 -60 -24 -24 -38 -29 -76
-29 -25 0 -62 7 -83 15 -34 15 -38 15 -49 -1 -21 -29 -15 -44 25 -61 58 -25
171 -22 216 6 69 43 82 96 78 329 l-2 102 -35 0 c-28 0 -35 -4 -35 -20 0 -24
-8 -25 -32 -3 -30 27 -135 29 -176 4z m169 -70 c21 -22 29 -39 29 -66 0 -106
-161 -133 -188 -32 -19 70 21 127 90 127 30 0 46 -7 69 -29z"/>
<path d="M2966 5199 c-20 -17 -44 -54 -58 -87 -20 -50 -22 -75 -22 -197 0
-124 3 -150 28 -230 28 -94 125 -307 145 -319 15 -10 81 130 117 249 25 81 28
105 28 250 1 139 -2 169 -21 231 -30 93 -72 134 -138 134 -35 0 -51 -6 -79
-31z m135 -59 c53 -73 69 -314 31 -460 -25 -95 -61 -190 -71 -190 -10 0 -61
121 -91 215 -31 96 -39 279 -16 357 23 80 50 110 94 106 24 -2 41 -11 53 -28z"/>
<path d="M3868 5214 c-33 -18 -71 -89 -87 -162 -16 -77 -14 -270 5 -360 27
-134 106 -336 128 -329 20 6 125 230 151 322 50 173 41 366 -20 471 -41 69
-113 93 -177 58z m97 -50 c39 -15 75 -133 75 -247 0 -124 -41 -284 -106 -410
-20 -38 -25 -31 -63 88 -41 125 -56 269 -41 381 21 159 62 216 135 188z"/>
<path d="M4691 4881 c-17 -11 -7 -41 13 -41 22 0 30 20 15 36 -9 8 -19 10 -28
5z"/>
<path d="M5507 4883 c-15 -14 -7 -43 12 -43 26 0 36 17 21 35 -14 16 -23 19
-33 8z"/>
<path d="M6150 4811 c0 -24 -4 -31 -20 -31 -11 0 -20 -7 -20 -15 0 -8 9 -15
20 -15 18 0 20 -7 20 -85 0 -72 3 -88 20 -105 21 -21 65 -26 90 -10 20 13 6
24 -33 24 l-32 1 -3 88 -3 87 36 0 c24 0 35 4 35 15 0 10 -10 15 -34 15 -30 0
-35 3 -38 27 -2 17 -10 29 -20 31 -14 3 -18 -3 -18 -27z"/>
<path d="M4915 4782 c-10 -2 -29 -11 -42 -19 -21 -14 -23 -14 -23 1 0 9 -7 16
-15 16 -12 0 -15 -20 -15 -120 0 -96 3 -120 14 -120 18 0 26 31 26 108 0 74
20 102 74 102 52 0 66 -27 66 -128 0 -74 2 -83 18 -80 14 3 18 16 20 73 4 79
-11 141 -36 153 -25 13 -64 20 -87 14z"/>
<path d="M4451 4754 c-40 -51 -18 -87 65 -108 55 -14 75 -36 55 -60 -15 -18
-57 -21 -97 -6 -31 12 -56 -2 -38 -20 33 -33 146 -22 170 15 32 49 7 80 -85
103 -43 10 -60 34 -41 57 12 14 25 16 67 12 32 -3 55 -1 59 5 11 17 -18 28
-78 28 -49 0 -59 -3 -77 -26z"/>
<path d="M4690 4670 c0 -60 0 -113 -1 -117 0 -5 7 -9 15 -11 14 -3 16 13 16
117 0 101 -2 121 -15 121 -12 0 -15 -19 -15 -110z"/>
<path d="M5272 4760 c-23 -22 -28 -55 -12 -80 5 -8 37 -23 71 -35 69 -22 79
-34 53 -60 -18 -17 -74 -17 -116 0 -13 5 -18 2 -18 -9 0 -32 93 -48 145 -24
26 12 40 42 33 74 -4 21 -36 40 -94 54 -48 12 -61 32 -37 56 13 13 29 15 70
11 40 -4 53 -2 53 8 0 32 -114 36 -148 5z"/>
<path d="M5504 4767 c-2 -7 -3 -60 -2 -118 3 -90 5 -104 21 -107 15 -3 17 8
17 117 0 102 -2 121 -15 121 -9 0 -18 -6 -21 -13z"/>
<path d="M5670 4767 c-34 -26 -50 -62 -50 -110 0 -42 5 -54 34 -83 28 -28 41
-34 78 -34 47 0 89 17 96 39 4 11 -1 12 -19 6 -13 -4 -41 -9 -61 -12 -32 -4
-42 0 -68 25 -16 17 -30 35 -30 41 0 7 35 11 100 11 83 0 100 3 100 15 0 29
-28 82 -51 99 -28 19 -107 21 -129 3z m91 -17 c14 0 49 -39 49 -55 0 -12 -16
-15 -80 -15 -44 0 -80 3 -80 8 0 30 60 76 88 66 8 -2 18 -4 23 -4z"/>
<path d="M5915 4755 c-14 -13 -25 -31 -25 -40 0 -27 45 -62 88 -70 45 -7 67
-26 59 -50 -9 -21 -54 -29 -95 -17 -39 12 -65 1 -46 -18 33 -33 146 -22 170
15 32 49 7 80 -85 103 -43 10 -60 34 -41 57 12 14 25 16 67 12 32 -3 55 -1 59
5 11 17 -18 28 -74 28 -43 0 -58 -5 -77 -25z"/>
<path d="M6342 4768 c-26 -13 -24 -35 4 -30 82 15 102 14 118 -9 26 -38 20
-49 -28 -49 -108 0 -159 -58 -101 -115 27 -28 80 -34 118 -14 16 9 22 9 25 0
2 -6 10 -11 18 -11 11 0 14 20 14 99 0 96 -1 100 -26 120 -30 23 -102 28 -142
9z m138 -138 c0 -31 -36 -60 -73 -60 -36 0 -57 15 -57 40 0 28 23 40 77 40 46
0 53 -3 53 -20z"/>
<path d="M3200 4458 c21 -87 73 -153 154 -196 44 -23 63 -27 141 -27 78 0 97
4 141 27 76 40 127 109 148 201 6 24 4 27 -21 27 -25 0 -31 -6 -46 -49 -21
-61 -89 -125 -149 -141 -57 -16 -144 -7 -195 18 -50 26 -86 68 -108 127 -15
38 -22 45 -45 45 -26 0 -27 -2 -20 -32z"/>
<path d="M3250 4145 l0 -105 105 0 105 0 0 75 0 75 -30 0 c-29 0 -30 -1 -30
-51 l0 -50 -42 3 -43 3 -3 64 c-2 46 -8 68 -20 77 -37 29 -42 18 -42 -91z"/>
<path d="M3688 4238 c-27 -9 -28 -12 -28 -79 l0 -69 -40 0 -40 0 0 50 c0 49
-1 50 -30 50 l-30 0 0 -75 0 -75 100 0 100 0 0 105 c0 58 -1 105 -2 104 -2 0
-15 -5 -30 -11z"/>
</g>
</svg>
